<svg width="29" height="31" viewBox="0 0 29 31" fill="none" xmlns="http://www.w3.org/2000/svg">
<path d="M20.6281 13.2999C20.6281 14.7144 20.0767 16.0709 19.0952 17.0711C18.1137 18.0713 16.7825 18.6332 15.3944 18.6332C14.0064 18.6332 12.6752 18.0713 11.6937 17.0711C10.7122 16.0709 10.1608 14.7144 10.1608 13.2999C10.1608 11.8854 10.7122 10.5288 11.6937 9.52865C12.6752 8.52846 14.0064 7.96655 15.3944 7.96655C16.7825 7.96655 18.1137 8.52846 19.0952 9.52865C20.0767 10.5288 20.6281 11.8854 20.6281 13.2999Z" fill="#696969"/>
<path fill-rule="evenodd" clip-rule="evenodd" d="M0.441284 15.5C0.441284 11.5218 1.92247 7.70644 4.55899 4.8934C7.19552 2.08035 10.7714 0.5 14.5 0.5C18.2286 0.5 21.8045 2.08035 24.4411 4.8934C27.0776 7.70644 28.5588 11.5218 28.5588 15.5C28.5588 19.4782 27.0776 23.2936 24.4411 26.1066C21.8045 28.9196 18.2286 30.5 14.5 30.5C10.7714 30.5 7.19552 28.9196 4.55899 26.1066C1.92247 23.2936 0.441284 19.4782 0.441284 15.5ZM14.5 2.375C12.1835 2.37513 9.91401 3.07318 7.95288 4.3888C5.99174 5.70442 4.41865 7.58414 3.41465 9.81161C2.41064 12.0391 2.01654 14.5238 2.2777 16.9797C2.53887 19.4356 3.44468 21.7629 4.89088 23.6938C6.13859 21.5487 8.88532 19.25 14.5 19.25C20.1147 19.25 22.8597 21.5469 24.1092 23.6938C25.5554 21.7629 26.4612 19.4356 26.7224 16.9797C26.9835 14.5238 26.5894 12.0391 25.5854 9.81161C24.5814 7.58414 23.0083 5.70442 21.0472 4.3888C19.086 3.07318 16.8166 2.37513 14.5 2.375Z" fill="#696969"/>
</svg>
